<svg xmlns="http://www.w3.org/2000/svg" version="1.1" xmlns:xlink="http://www.w3.org/1999/xlink" xmlns:svgjs="http://svgjs.dev/svgjs" width="1440" height="560" preserveAspectRatio="none" viewBox="0 0 1440 560">
    <g mask="url(&quot;#SvgjsMask1045&quot;)" fill="none">
        <g mask="url(&quot;#SvgjsMask1046&quot;)">
            <path d="M143 325L221 403L247 403L299 455L299 559" stroke-width="4.33" stroke="rgba(240, 247, 244, 0.1)"></path>
            <path d="M136.5 325 a6.5 6.5 0 1 0 13 0 a6.5 6.5 0 1 0 -13 0zM292.5 559 a6.5 6.5 0 1 0 13 0 a6.5 6.5 0 1 0 -13 0z" fill="rgba(240, 247, 244, 0.1)"></path>
            <path d="M923 13L429 13" stroke-width="4.33" stroke="rgba(240, 247, 244, 0.1)"></path>
            <path d="M916.5 13 a6.5 6.5 0 1 0 13 0 a6.5 6.5 0 1 0 -13 0zM422.5 13 a6.5 6.5 0 1 0 13 0 a6.5 6.5 0 1 0 -13 0z" fill="rgba(240, 247, 244, 0.1)"></path>
            <path d="M1339 377L1261 455L1209 455L871 117L871 91" stroke-width="4.33" stroke="rgba(240, 247, 244, 0.1)"></path>
            <path d="M1332.5 377 a6.5 6.5 0 1 0 13 0 a6.5 6.5 0 1 0 -13 0zM864.5 91 a6.5 6.5 0 1 0 13 0 a6.5 6.5 0 1 0 -13 0z" fill="rgba(240, 247, 244, 0.1)"></path>
            <path d="M1443 273L1235 273L975 13L949 13" stroke-width="4.33" stroke="rgba(240, 247, 244, 0.1)"></path>
            <path d="M1436.5 273 a6.5 6.5 0 1 0 13 0 a6.5 6.5 0 1 0 -13 0zM942.5 13 a6.5 6.5 0 1 0 13 0 a6.5 6.5 0 1 0 -13 0z" fill="rgba(240, 247, 244, 0.1)"></path>
            <path d="M1339 507L1287 455" stroke-width="4.33" stroke="rgba(240, 247, 244, 0.1)"></path>
            <path d="M1332.5 507 a6.5 6.5 0 1 0 13 0 a6.5 6.5 0 1 0 -13 0zM1280.5 455 a6.5 6.5 0 1 0 13 0 a6.5 6.5 0 1 0 -13 0z" fill="rgba(240, 247, 244, 0.1)"></path>
            <path d="M13 91L195 273L195 351L221 377L247 377L377 247L429 247" stroke-width="4.33" stroke="rgba(240, 247, 244, 0.1)"></path>
            <path d="M6.5 91 a6.5 6.5 0 1 0 13 0 a6.5 6.5 0 1 0 -13 0zM422.5 247 a6.5 6.5 0 1 0 13 0 a6.5 6.5 0 1 0 -13 0z" fill="rgba(240, 247, 244, 0.1)"></path>
            <path d="M975 325L1001 299L1001 273L845 117L845 39" stroke-width="4.33" stroke="rgba(240, 247, 244, 0.1)"></path>
            <path d="M968.5 325 a6.5 6.5 0 1 0 13 0 a6.5 6.5 0 1 0 -13 0zM838.5 39 a6.5 6.5 0 1 0 13 0 a6.5 6.5 0 1 0 -13 0z" fill="rgba(240, 247, 244, 0.1)"></path>
            <path d="M455 221L455 455L533 533L533 559" stroke-width="4.33" stroke="rgba(240, 247, 244, 0.1)"></path>
            <path d="M448.5 221 a6.5 6.5 0 1 0 13 0 a6.5 6.5 0 1 0 -13 0zM526.5 559 a6.5 6.5 0 1 0 13 0 a6.5 6.5 0 1 0 -13 0z" fill="rgba(240, 247, 244, 0.1)"></path>
            <path d="M975 91L923 143" stroke-width="4.33" stroke="rgba(240, 247, 244, 0.1)"></path>
            <path d="M968.5 91 a6.5 6.5 0 1 0 13 0 a6.5 6.5 0 1 0 -13 0zM916.5 143 a6.5 6.5 0 1 0 13 0 a6.5 6.5 0 1 0 -13 0z" fill="rgba(240, 247, 244, 0.1)"></path>
            <path d="M247 299L247 273L13 39L13 13" stroke-width="4.33" stroke="rgba(240, 247, 244, 0.1)"></path>
            <path d="M240.5 299 a6.5 6.5 0 1 0 13 0 a6.5 6.5 0 1 0 -13 0zM6.5 13 a6.5 6.5 0 1 0 13 0 a6.5 6.5 0 1 0 -13 0z" fill="rgba(240, 247, 244, 0.1)"></path>
            <path d="M689 507L637 559L585 559L481 455L481 299L559 221L559 169" stroke-width="4.33" stroke="rgba(240, 247, 244, 0.1)"></path>
            <path d="M682.5 507 a6.5 6.5 0 1 0 13 0 a6.5 6.5 0 1 0 -13 0zM552.5 169 a6.5 6.5 0 1 0 13 0 a6.5 6.5 0 1 0 -13 0z" fill="rgba(240, 247, 244, 0.1)"></path>
            <path d="M767 39L637 39L481 195L481 273" stroke-width="4.33" stroke="rgba(240, 247, 244, 0.1)"></path>
            <path d="M760.5 39 a6.5 6.5 0 1 0 13 0 a6.5 6.5 0 1 0 -13 0zM474.5 273 a6.5 6.5 0 1 0 13 0 a6.5 6.5 0 1 0 -13 0z" fill="rgba(240, 247, 244, 0.1)"></path>
            <path d="M1261 507L1261 559" stroke-width="4.33" stroke="rgba(240, 247, 244, 0.1)"></path>
            <path d="M1254.5 507 a6.5 6.5 0 1 0 13 0 a6.5 6.5 0 1 0 -13 0zM1254.5 559 a6.5 6.5 0 1 0 13 0 a6.5 6.5 0 1 0 -13 0z" fill="rgba(240, 247, 244, 0.1)"></path>
            <path d="M1287 559L1313 559L1443 429L1443 299" stroke-width="4.33" stroke="rgba(240, 247, 244, 0.1)"></path>
            <path d="M1280.5 559 a6.5 6.5 0 1 0 13 0 a6.5 6.5 0 1 0 -13 0zM1436.5 299 a6.5 6.5 0 1 0 13 0 a6.5 6.5 0 1 0 -13 0z" fill="rgba(240, 247, 244, 0.1)"></path>
            <path d="M143 65L117 39L39 39" stroke-width="4.33" stroke="rgba(240, 247, 244, 0.1)"></path>
            <path d="M136.5 65 a6.5 6.5 0 1 0 13 0 a6.5 6.5 0 1 0 -13 0zM32.5 39 a6.5 6.5 0 1 0 13 0 a6.5 6.5 0 1 0 -13 0z" fill="rgba(240, 247, 244, 0.1)"></path>
            <path d="M1027 195L1079 143" stroke-width="4.33" stroke="rgba(240, 247, 244, 0.1)"></path>
            <path d="M1020.5 195 a6.5 6.5 0 1 0 13 0 a6.5 6.5 0 1 0 -13 0zM1072.5 143 a6.5 6.5 0 1 0 13 0 a6.5 6.5 0 1 0 -13 0z" fill="rgba(240, 247, 244, 0.1)"></path>
            <path d="M1027 299L1027 325L1235 533L1235 559" stroke-width="4.33" stroke="rgba(240, 247, 244, 0.1)"></path>
            <path d="M1020.5 299 a6.5 6.5 0 1 0 13 0 a6.5 6.5 0 1 0 -13 0zM1228.5 559 a6.5 6.5 0 1 0 13 0 a6.5 6.5 0 1 0 -13 0z" fill="rgba(240, 247, 244, 0.1)"></path>
            <path d="M403 13L39 13" stroke-width="4.33" stroke="rgba(240, 247, 244, 0.1)"></path>
            <path d="M396.5 13 a6.5 6.5 0 1 0 13 0 a6.5 6.5 0 1 0 -13 0zM32.5 13 a6.5 6.5 0 1 0 13 0 a6.5 6.5 0 1 0 -13 0z" fill="rgba(240, 247, 244, 0.1)"></path>
            <path d="M1391 221L1391 13" stroke-width="4.33" stroke="rgba(240, 247, 244, 0.1)"></path>
            <path d="M1384.5 221 a6.5 6.5 0 1 0 13 0 a6.5 6.5 0 1 0 -13 0zM1384.5 13 a6.5 6.5 0 1 0 13 0 a6.5 6.5 0 1 0 -13 0z" fill="rgba(240, 247, 244, 0.1)"></path>
            <path d="M585 403L689 299L975 299" stroke-width="4.33" stroke="rgba(240, 247, 244, 0.1)"></path>
            <path d="M578.5 403 a6.5 6.5 0 1 0 13 0 a6.5 6.5 0 1 0 -13 0zM968.5 299 a6.5 6.5 0 1 0 13 0 a6.5 6.5 0 1 0 -13 0z" fill="rgba(240, 247, 244, 0.1)"></path>
            <path d="M949 559L1209 559" stroke-width="4.33" stroke="rgba(240, 247, 244, 0.1)"></path>
            <path d="M942.5 559 a6.5 6.5 0 1 0 13 0 a6.5 6.5 0 1 0 -13 0zM1202.5 559 a6.5 6.5 0 1 0 13 0 a6.5 6.5 0 1 0 -13 0z" fill="rgba(240, 247, 244, 0.1)"></path>
            <path d="M221 143L143 143L91 91L91 65" stroke-width="4.33" stroke="rgba(240, 247, 244, 0.1)"></path>
            <path d="M214.5 143 a6.5 6.5 0 1 0 13 0 a6.5 6.5 0 1 0 -13 0zM84.5 65 a6.5 6.5 0 1 0 13 0 a6.5 6.5 0 1 0 -13 0z" fill="rgba(240, 247, 244, 0.1)"></path>
            <path d="M949 455L949 481L871 559L663 559" stroke-width="4.33" stroke="rgba(240, 247, 244, 0.1)"></path>
            <path d="M942.5 455 a6.5 6.5 0 1 0 13 0 a6.5 6.5 0 1 0 -13 0zM656.5 559 a6.5 6.5 0 1 0 13 0 a6.5 6.5 0 1 0 -13 0z" fill="rgba(240, 247, 244, 0.1)"></path>
            <path d="M1105 39L1079 13L1001 13" stroke-width="4.33" stroke="rgba(240, 247, 244, 0.1)"></path>
            <path d="M1098.5 39 a6.5 6.5 0 1 0 13 0 a6.5 6.5 0 1 0 -13 0zM994.5 13 a6.5 6.5 0 1 0 13 0 a6.5 6.5 0 1 0 -13 0z" fill="rgba(240, 247, 244, 0.1)"></path>
            <path d="M91 429L13 429" stroke-width="4.33" stroke="rgba(240, 247, 244, 0.1)"></path>
            <path d="M84.5 429 a6.5 6.5 0 1 0 13 0 a6.5 6.5 0 1 0 -13 0zM6.5 429 a6.5 6.5 0 1 0 13 0 a6.5 6.5 0 1 0 -13 0z" fill="rgba(240, 247, 244, 0.1)"></path>
            <path d="M325 351L325 559" stroke-width="4.33" stroke="rgba(240, 247, 244, 0.1)"></path>
            <path d="M318.5 351 a6.5 6.5 0 1 0 13 0 a6.5 6.5 0 1 0 -13 0zM318.5 559 a6.5 6.5 0 1 0 13 0 a6.5 6.5 0 1 0 -13 0z" fill="rgba(240, 247, 244, 0.1)"></path>
            <path d="M663 65L819 65" stroke-width="4.33" stroke="rgba(240, 247, 244, 0.1)"></path>
            <path d="M656.5 65 a6.5 6.5 0 1 0 13 0 a6.5 6.5 0 1 0 -13 0zM812.5 65 a6.5 6.5 0 1 0 13 0 a6.5 6.5 0 1 0 -13 0z" fill="rgba(240, 247, 244, 0.1)"></path>
            <path d="M143 247L13 377" stroke-width="4.33" stroke="rgba(240, 247, 244, 0.1)"></path>
            <path d="M136.5 247 a6.5 6.5 0 1 0 13 0 a6.5 6.5 0 1 0 -13 0zM6.5 377 a6.5 6.5 0 1 0 13 0 a6.5 6.5 0 1 0 -13 0z" fill="rgba(240, 247, 244, 0.1)"></path>
            <path d="M65 559L195 429L247 429L273 455L273 559" stroke-width="4.33" stroke="rgba(240, 247, 244, 0.1)"></path>
            <path d="M58.5 559 a6.5 6.5 0 1 0 13 0 a6.5 6.5 0 1 0 -13 0zM266.5 559 a6.5 6.5 0 1 0 13 0 a6.5 6.5 0 1 0 -13 0z" fill="rgba(240, 247, 244, 0.1)"></path>
            <path d="M117 559L169 559L247 481L247 455" stroke-width="4.33" stroke="rgba(240, 247, 244, 0.1)"></path>
            <path d="M110.5 559 a6.5 6.5 0 1 0 13 0 a6.5 6.5 0 1 0 -13 0zM240.5 455 a6.5 6.5 0 1 0 13 0 a6.5 6.5 0 1 0 -13 0z" fill="rgba(240, 247, 244, 0.1)"></path>
            <path d="M39 247L39 143L13 117" stroke-width="4.33" stroke="rgba(240, 247, 244, 0.1)"></path>
            <path d="M32.5 247 a6.5 6.5 0 1 0 13 0 a6.5 6.5 0 1 0 -13 0zM6.5 117 a6.5 6.5 0 1 0 13 0 a6.5 6.5 0 1 0 -13 0z" fill="rgba(240, 247, 244, 0.1)"></path>
            <path d="M1079 91L1079 39" stroke-width="4.33" stroke="rgba(240, 247, 244, 0.1)"></path>
            <path d="M1072.5 91 a6.5 6.5 0 1 0 13 0 a6.5 6.5 0 1 0 -13 0zM1072.5 39 a6.5 6.5 0 1 0 13 0 a6.5 6.5 0 1 0 -13 0z" fill="rgba(240, 247, 244, 0.1)"></path>
            <path d="M897 351L1027 351L1209 533" stroke-width="4.33" stroke="rgba(240, 247, 244, 0.1)"></path>
            <path d="M890.5 351 a6.5 6.5 0 1 0 13 0 a6.5 6.5 0 1 0 -13 0zM1202.5 533 a6.5 6.5 0 1 0 13 0 a6.5 6.5 0 1 0 -13 0z" fill="rgba(240, 247, 244, 0.1)"></path>
            <path d="M351 429L351 559" stroke-width="4.33" stroke="rgba(240, 247, 244, 0.1)"></path>
            <path d="M344.5 429 a6.5 6.5 0 1 0 13 0 a6.5 6.5 0 1 0 -13 0zM344.5 559 a6.5 6.5 0 1 0 13 0 a6.5 6.5 0 1 0 -13 0z" fill="rgba(240, 247, 244, 0.1)"></path>
            <path d="M1105 195L1105 221L1053 273" stroke-width="4.33" stroke="rgba(240, 247, 244, 0.1)"></path>
            <path d="M1098.5 195 a6.5 6.5 0 1 0 13 0 a6.5 6.5 0 1 0 -13 0zM1046.5 273 a6.5 6.5 0 1 0 13 0 a6.5 6.5 0 1 0 -13 0z" fill="rgba(240, 247, 244, 0.1)"></path>
            <path d="M793 481L533 481L507 455" stroke-width="4.33" stroke="rgba(240, 247, 244, 0.1)"></path>
            <path d="M786.5 481 a6.5 6.5 0 1 0 13 0 a6.5 6.5 0 1 0 -13 0zM500.5 455 a6.5 6.5 0 1 0 13 0 a6.5 6.5 0 1 0 -13 0z" fill="rgba(240, 247, 244, 0.1)"></path>
            <path d="M637 169L715 91L819 91" stroke-width="4.33" stroke="rgba(240, 247, 244, 0.1)"></path>
            <path d="M630.5 169 a6.5 6.5 0 1 0 13 0 a6.5 6.5 0 1 0 -13 0zM812.5 91 a6.5 6.5 0 1 0 13 0 a6.5 6.5 0 1 0 -13 0z" fill="rgba(240, 247, 244, 0.1)"></path>
            <path d="M1417 169L1443 195L1443 247" stroke-width="4.33" stroke="rgba(240, 247, 244, 0.1)"></path>
            <path d="M1410.5 169 a6.5 6.5 0 1 0 13 0 a6.5 6.5 0 1 0 -13 0zM1436.5 247 a6.5 6.5 0 1 0 13 0 a6.5 6.5 0 1 0 -13 0z" fill="rgba(240, 247, 244, 0.1)"></path>
            <path d="M273 169L143 39" stroke-width="4.33" stroke="rgba(240, 247, 244, 0.1)"></path>
            <path d="M266.5 169 a6.5 6.5 0 1 0 13 0 a6.5 6.5 0 1 0 -13 0zM136.5 39 a6.5 6.5 0 1 0 13 0 a6.5 6.5 0 1 0 -13 0z" fill="rgba(240, 247, 244, 0.1)"></path>
            <path d="M325 117L247 39L169 39" stroke-width="4.33" stroke="rgba(240, 247, 244, 0.1)"></path>
            <path d="M318.5 117 a6.5 6.5 0 1 0 13 0 a6.5 6.5 0 1 0 -13 0zM162.5 39 a6.5 6.5 0 1 0 13 0 a6.5 6.5 0 1 0 -13 0z" fill="rgba(240, 247, 244, 0.1)"></path>
            <path d="M1209 403L1079 273" stroke-width="4.33" stroke="rgba(240, 247, 244, 0.1)"></path>
            <path d="M1202.5 403 a6.5 6.5 0 1 0 13 0 a6.5 6.5 0 1 0 -13 0zM1072.5 273 a6.5 6.5 0 1 0 13 0 a6.5 6.5 0 1 0 -13 0z" fill="rgba(240, 247, 244, 0.1)"></path>
            <path d="M715 143L741 117L819 117L975 273" stroke-width="4.33" stroke="rgba(240, 247, 244, 0.1)"></path>
            <path d="M708.5 143 a6.5 6.5 0 1 0 13 0 a6.5 6.5 0 1 0 -13 0zM968.5 273 a6.5 6.5 0 1 0 13 0 a6.5 6.5 0 1 0 -13 0z" fill="rgba(240, 247, 244, 0.1)"></path>
            <path d="M533 377L611 455L637 455L767 325L949 325" stroke-width="4.33" stroke="rgba(240, 247, 244, 0.1)"></path>
            <path d="M526.5 377 a6.5 6.5 0 1 0 13 0 a6.5 6.5 0 1 0 -13 0zM942.5 325 a6.5 6.5 0 1 0 13 0 a6.5 6.5 0 1 0 -13 0z" fill="rgba(240, 247, 244, 0.1)"></path>
            <path d="M13 195L13 351" stroke-width="4.33" stroke="rgba(240, 247, 244, 0.1)"></path>
            <path d="M6.5 195 a6.5 6.5 0 1 0 13 0 a6.5 6.5 0 1 0 -13 0zM6.5 351 a6.5 6.5 0 1 0 13 0 a6.5 6.5 0 1 0 -13 0z" fill="rgba(240, 247, 244, 0.1)"></path>
            <path d="M351 377L351 299L377 273L429 273" stroke-width="4.33" stroke="rgba(240, 247, 244, 0.1)"></path>
            <path d="M344.5 377 a6.5 6.5 0 1 0 13 0 a6.5 6.5 0 1 0 -13 0zM422.5 273 a6.5 6.5 0 1 0 13 0 a6.5 6.5 0 1 0 -13 0z" fill="rgba(240, 247, 244, 0.1)"></path>
            <path d="M143 117L117 91L117 65" stroke-width="4.33" stroke="rgba(240, 247, 244, 0.1)"></path>
            <path d="M136.5 117 a6.5 6.5 0 1 0 13 0 a6.5 6.5 0 1 0 -13 0zM110.5 65 a6.5 6.5 0 1 0 13 0 a6.5 6.5 0 1 0 -13 0z" fill="rgba(240, 247, 244, 0.1)"></path>
            <path d="M819 247L923 247L949 273" stroke-width="4.33" stroke="rgba(240, 247, 244, 0.1)"></path>
            <path d="M812.5 247 a6.5 6.5 0 1 0 13 0 a6.5 6.5 0 1 0 -13 0zM942.5 273 a6.5 6.5 0 1 0 13 0 a6.5 6.5 0 1 0 -13 0z" fill="rgba(240, 247, 244, 0.1)"></path>
            <path d="M689 351L663 351L611 403L611 429" stroke-width="4.33" stroke="rgba(240, 247, 244, 0.1)"></path>
            <path d="M682.5 351 a6.5 6.5 0 1 0 13 0 a6.5 6.5 0 1 0 -13 0zM604.5 429 a6.5 6.5 0 1 0 13 0 a6.5 6.5 0 1 0 -13 0z" fill="rgba(240, 247, 244, 0.1)"></path>
            <path d="M1365 221L1365 13" stroke-width="4.33" stroke="rgba(240, 247, 244, 0.1)"></path>
            <path d="M1358.5 221 a6.5 6.5 0 1 0 13 0 a6.5 6.5 0 1 0 -13 0zM1358.5 13 a6.5 6.5 0 1 0 13 0 a6.5 6.5 0 1 0 -13 0z" fill="rgba(240, 247, 244, 0.1)"></path>
            <path d="M429 117L403 117L325 39L273 39" stroke-width="4.33" stroke="rgba(240, 247, 244, 0.1)"></path>
            <path d="M422.5 117 a6.5 6.5 0 1 0 13 0 a6.5 6.5 0 1 0 -13 0zM266.5 39 a6.5 6.5 0 1 0 13 0 a6.5 6.5 0 1 0 -13 0z" fill="rgba(240, 247, 244, 0.1)"></path>
            <path d="M1001 117L1027 143L1027 169L1001 195L975 195L949 169L949 143L975 117" stroke-width="4.33" stroke="rgba(240, 247, 244, 0.1)"></path>
            <path d="M994.5 117 a6.5 6.5 0 1 0 13 0 a6.5 6.5 0 1 0 -13 0zM968.5 117 a6.5 6.5 0 1 0 13 0 a6.5 6.5 0 1 0 -13 0z" fill="rgba(240, 247, 244, 0.1)"></path>
            <path d="M1287 351L1209 429" stroke-width="4.33" stroke="rgba(240, 247, 244, 0.1)"></path>
            <path d="M1280.5 351 a6.5 6.5 0 1 0 13 0 a6.5 6.5 0 1 0 -13 0zM1202.5 429 a6.5 6.5 0 1 0 13 0 a6.5 6.5 0 1 0 -13 0z" fill="rgba(240, 247, 244, 0.1)"></path>
            <path d="M377 65L403 91L559 91L611 39" stroke-width="4.33" stroke="rgba(240, 247, 244, 0.1)"></path>
            <path d="M370.5 65 a6.5 6.5 0 1 0 13 0 a6.5 6.5 0 1 0 -13 0zM604.5 39 a6.5 6.5 0 1 0 13 0 a6.5 6.5 0 1 0 -13 0z" fill="rgba(240, 247, 244, 0.1)"></path>
            <path d="M767 377L689 455" stroke-width="4.33" stroke="rgba(240, 247, 244, 0.1)"></path>
            <path d="M760.5 377 a6.5 6.5 0 1 0 13 0 a6.5 6.5 0 1 0 -13 0zM682.5 455 a6.5 6.5 0 1 0 13 0 a6.5 6.5 0 1 0 -13 0z" fill="rgba(240, 247, 244, 0.1)"></path>
            <path d="M403 559L403 299" stroke-width="4.33" stroke="rgba(240, 247, 244, 0.1)"></path>
            <path d="M396.5 559 a6.5 6.5 0 1 0 13 0 a6.5 6.5 0 1 0 -13 0zM396.5 299 a6.5 6.5 0 1 0 13 0 a6.5 6.5 0 1 0 -13 0z" fill="rgba(240, 247, 244, 0.1)"></path>
            <path d="M117 455L117 481L91 507L13 507" stroke-width="4.33" stroke="rgba(240, 247, 244, 0.1)"></path>
            <path d="M110.5 455 a6.5 6.5 0 1 0 13 0 a6.5 6.5 0 1 0 -13 0zM6.5 507 a6.5 6.5 0 1 0 13 0 a6.5 6.5 0 1 0 -13 0z" fill="rgba(240, 247, 244, 0.1)"></path>
            <path d="M1105 533L923 533L897 559" stroke-width="4.33" stroke="rgba(240, 247, 244, 0.1)"></path>
            <path d="M1098.5 533 a6.5 6.5 0 1 0 13 0 a6.5 6.5 0 1 0 -13 0zM890.5 559 a6.5 6.5 0 1 0 13 0 a6.5 6.5 0 1 0 -13 0z" fill="rgba(240, 247, 244, 0.1)"></path>
            <path d="M91 403L91 325L143 273L169 273" stroke-width="4.33" stroke="rgba(240, 247, 244, 0.1)"></path>
            <path d="M84.5 403 a6.5 6.5 0 1 0 13 0 a6.5 6.5 0 1 0 -13 0zM162.5 273 a6.5 6.5 0 1 0 13 0 a6.5 6.5 0 1 0 -13 0z" fill="rgba(240, 247, 244, 0.1)"></path>
            <path d="M1287 91L1287 13" stroke-width="4.33" stroke="rgba(240, 247, 244, 0.1)"></path>
            <path d="M1280.5 91 a6.5 6.5 0 1 0 13 0 a6.5 6.5 0 1 0 -13 0zM1280.5 13 a6.5 6.5 0 1 0 13 0 a6.5 6.5 0 1 0 -13 0z" fill="rgba(240, 247, 244, 0.1)"></path>
            <path d="M871 273L533 273L507 299L507 403" stroke-width="4.33" stroke="rgba(240, 247, 244, 0.1)"></path>
            <path d="M864.5 273 a6.5 6.5 0 1 0 13 0 a6.5 6.5 0 1 0 -13 0zM500.5 403 a6.5 6.5 0 1 0 13 0 a6.5 6.5 0 1 0 -13 0z" fill="rgba(240, 247, 244, 0.1)"></path>
            <path d="M1053 221L1001 221" stroke-width="4.33" stroke="rgba(240, 247, 244, 0.1)"></path>
            <path d="M1046.5 221 a6.5 6.5 0 1 0 13 0 a6.5 6.5 0 1 0 -13 0zM994.5 221 a6.5 6.5 0 1 0 13 0 a6.5 6.5 0 1 0 -13 0z" fill="rgba(240, 247, 244, 0.1)"></path>
            <path d="M325 169L325 273L247 351L221 351" stroke-width="4.33" stroke="rgba(240, 247, 244, 0.1)"></path>
            <path d="M318.5 169 a6.5 6.5 0 1 0 13 0 a6.5 6.5 0 1 0 -13 0zM214.5 351 a6.5 6.5 0 1 0 13 0 a6.5 6.5 0 1 0 -13 0z" fill="rgba(240, 247, 244, 0.1)"></path>
            <path d="M1235 65L1235 247" stroke-width="4.33" stroke="rgba(240, 247, 244, 0.1)"></path>
            <path d="M1228.5 65 a6.5 6.5 0 1 0 13 0 a6.5 6.5 0 1 0 -13 0zM1228.5 247 a6.5 6.5 0 1 0 13 0 a6.5 6.5 0 1 0 -13 0z" fill="rgba(240, 247, 244, 0.1)"></path>
            <path d="M871 533L871 403L897 377L975 377" stroke-width="4.33" stroke="rgba(240, 247, 244, 0.1)"></path>
            <path d="M864.5 533 a6.5 6.5 0 1 0 13 0 a6.5 6.5 0 1 0 -13 0zM968.5 377 a6.5 6.5 0 1 0 13 0 a6.5 6.5 0 1 0 -13 0z" fill="rgba(240, 247, 244, 0.1)"></path>
            <path d="M1157 65L1209 65L1261 13" stroke-width="4.33" stroke="rgba(240, 247, 244, 0.1)"></path>
            <path d="M1150.5 65 a6.5 6.5 0 1 0 13 0 a6.5 6.5 0 1 0 -13 0zM1254.5 13 a6.5 6.5 0 1 0 13 0 a6.5 6.5 0 1 0 -13 0z" fill="rgba(240, 247, 244, 0.1)"></path>
            <path d="M247 247L273 273L299 273" stroke-width="4.33" stroke="rgba(240, 247, 244, 0.1)"></path>
            <path d="M240.5 247 a6.5 6.5 0 1 0 13 0 a6.5 6.5 0 1 0 -13 0zM292.5 273 a6.5 6.5 0 1 0 13 0 a6.5 6.5 0 1 0 -13 0z" fill="rgba(240, 247, 244, 0.1)"></path>
            <path d="M637 247L793 247L845 195L871 195L897 221" stroke-width="4.33" stroke="rgba(240, 247, 244, 0.1)"></path>
            <path d="M630.5 247 a6.5 6.5 0 1 0 13 0 a6.5 6.5 0 1 0 -13 0zM890.5 221 a6.5 6.5 0 1 0 13 0 a6.5 6.5 0 1 0 -13 0z" fill="rgba(240, 247, 244, 0.1)"></path>
            <path d="M377 221L481 117L533 117" stroke-width="4.33" stroke="rgba(240, 247, 244, 0.1)"></path>
            <path d="M370.5 221 a6.5 6.5 0 1 0 13 0 a6.5 6.5 0 1 0 -13 0zM526.5 117 a6.5 6.5 0 1 0 13 0 a6.5 6.5 0 1 0 -13 0z" fill="rgba(240, 247, 244, 0.1)"></path>
            <path d="M377 429L377 299" stroke-width="4.33" stroke="rgba(240, 247, 244, 0.1)"></path>
            <path d="M370.5 429 a6.5 6.5 0 1 0 13 0 a6.5 6.5 0 1 0 -13 0zM370.5 299 a6.5 6.5 0 1 0 13 0 a6.5 6.5 0 1 0 -13 0z" fill="rgba(240, 247, 244, 0.1)"></path>
            <path d="M1131 91L1209 91" stroke-width="4.33" stroke="rgba(240, 247, 244, 0.1)"></path>
            <path d="M1124.5 91 a6.5 6.5 0 1 0 13 0 a6.5 6.5 0 1 0 -13 0zM1202.5 91 a6.5 6.5 0 1 0 13 0 a6.5 6.5 0 1 0 -13 0z" fill="rgba(240, 247, 244, 0.1)"></path>
            <path d="M13 559L39 533L65 533" stroke-width="4.33" stroke="rgba(240, 247, 244, 0.1)"></path>
            <path d="M6.5 559 a6.5 6.5 0 1 0 13 0 a6.5 6.5 0 1 0 -13 0zM58.5 533 a6.5 6.5 0 1 0 13 0 a6.5 6.5 0 1 0 -13 0z" fill="rgba(240, 247, 244, 0.1)"></path>
            <path d="M1079 429L1053 429L1027 403L1027 377" stroke-width="4.33" stroke="rgba(240, 247, 244, 0.1)"></path>
            <path d="M1072.5 429 a6.5 6.5 0 1 0 13 0 a6.5 6.5 0 1 0 -13 0zM1020.5 377 a6.5 6.5 0 1 0 13 0 a6.5 6.5 0 1 0 -13 0z" fill="rgba(240, 247, 244, 0.1)"></path>
            <path d="M221 221L169 169" stroke-width="4.33" stroke="rgba(240, 247, 244, 0.1)"></path>
            <path d="M214.5 221 a6.5 6.5 0 1 0 13 0 a6.5 6.5 0 1 0 -13 0zM162.5 169 a6.5 6.5 0 1 0 13 0 a6.5 6.5 0 1 0 -13 0z" fill="rgba(240, 247, 244, 0.1)"></path>
            <path d="M1183 247L1131 195" stroke-width="4.33" stroke="rgba(240, 247, 244, 0.1)"></path>
            <path d="M1176.5 247 a6.5 6.5 0 1 0 13 0 a6.5 6.5 0 1 0 -13 0zM1124.5 195 a6.5 6.5 0 1 0 13 0 a6.5 6.5 0 1 0 -13 0z" fill="rgba(240, 247, 244, 0.1)"></path>
            <path d="M1391 429L1313 429" stroke-width="4.33" stroke="rgba(240, 247, 244, 0.1)"></path>
            <path d="M1384.5 429 a6.5 6.5 0 1 0 13 0 a6.5 6.5 0 1 0 -13 0zM1306.5 429 a6.5 6.5 0 1 0 13 0 a6.5 6.5 0 1 0 -13 0z" fill="rgba(240, 247, 244, 0.1)"></path>
            <path d="M1365 559L1443 481L1443 455" stroke-width="4.33" stroke="rgba(240, 247, 244, 0.1)"></path>
            <path d="M1358.5 559 a6.5 6.5 0 1 0 13 0 a6.5 6.5 0 1 0 -13 0zM1436.5 455 a6.5 6.5 0 1 0 13 0 a6.5 6.5 0 1 0 -13 0z" fill="rgba(240, 247, 244, 0.1)"></path>
            <path d="M1417 429L1287 299L1131 299L1105 273L1105 247L1131 221" stroke-width="4.33" stroke="rgba(240, 247, 244, 0.1)"></path>
            <path d="M1410.5 429 a6.5 6.5 0 1 0 13 0 a6.5 6.5 0 1 0 -13 0zM1124.5 221 a6.5 6.5 0 1 0 13 0 a6.5 6.5 0 1 0 -13 0z" fill="rgba(240, 247, 244, 0.1)"></path>
            <path d="M403 221L429 221L481 169L481 143" stroke-width="4.33" stroke="rgba(240, 247, 244, 0.1)"></path>
            <path d="M396.5 221 a6.5 6.5 0 1 0 13 0 a6.5 6.5 0 1 0 -13 0zM474.5 143 a6.5 6.5 0 1 0 13 0 a6.5 6.5 0 1 0 -13 0z" fill="rgba(240, 247, 244, 0.1)"></path>
            <path d="M975 507L1157 507L1183 533" stroke-width="4.33" stroke="rgba(240, 247, 244, 0.1)"></path>
            <path d="M968.5 507 a6.5 6.5 0 1 0 13 0 a6.5 6.5 0 1 0 -13 0zM1176.5 533 a6.5 6.5 0 1 0 13 0 a6.5 6.5 0 1 0 -13 0z" fill="rgba(240, 247, 244, 0.1)"></path>
            <path d="M1339 117L1339 247" stroke-width="4.33" stroke="rgba(240, 247, 244, 0.1)"></path>
            <path d="M1332.5 117 a6.5 6.5 0 1 0 13 0 a6.5 6.5 0 1 0 -13 0zM1332.5 247 a6.5 6.5 0 1 0 13 0 a6.5 6.5 0 1 0 -13 0z" fill="rgba(240, 247, 244, 0.1)"></path>
            <path d="M1443 533L1417 559L1391 559" stroke-width="4.33" stroke="rgba(240, 247, 244, 0.1)"></path>
            <path d="M1436.5 533 a6.5 6.5 0 1 0 13 0 a6.5 6.5 0 1 0 -13 0zM1384.5 559 a6.5 6.5 0 1 0 13 0 a6.5 6.5 0 1 0 -13 0z" fill="rgba(240, 247, 244, 0.1)"></path>
            <path d="M429 377L429 533L455 559L507 559" stroke-width="4.33" stroke="rgba(240, 247, 244, 0.1)"></path>
            <path d="M422.5 377 a6.5 6.5 0 1 0 13 0 a6.5 6.5 0 1 0 -13 0zM500.5 559 a6.5 6.5 0 1 0 13 0 a6.5 6.5 0 1 0 -13 0z" fill="rgba(240, 247, 244, 0.1)"></path>
            <path d="M1339 91L1339 13" stroke-width="4.33" stroke="rgba(240, 247, 244, 0.1)"></path>
            <path d="M1332.5 91 a6.5 6.5 0 1 0 13 0 a6.5 6.5 0 1 0 -13 0zM1332.5 13 a6.5 6.5 0 1 0 13 0 a6.5 6.5 0 1 0 -13 0z" fill="rgba(240, 247, 244, 0.1)"></path>
            <path d="M1183 325L1235 377" stroke-width="4.33" stroke="rgba(240, 247, 244, 0.1)"></path>
            <path d="M1176.5 325 a6.5 6.5 0 1 0 13 0 a6.5 6.5 0 1 0 -13 0zM1228.5 377 a6.5 6.5 0 1 0 13 0 a6.5 6.5 0 1 0 -13 0z" fill="rgba(240, 247, 244, 0.1)"></path>
            <path d="M299 143L273 143L195 65" stroke-width="4.33" stroke="rgba(240, 247, 244, 0.1)"></path>
            <path d="M292.5 143 a6.5 6.5 0 1 0 13 0 a6.5 6.5 0 1 0 -13 0zM188.5 65 a6.5 6.5 0 1 0 13 0 a6.5 6.5 0 1 0 -13 0z" fill="rgba(240, 247, 244, 0.1)"></path>
            <path d="M975 429L1027 429L1079 481L1131 481" stroke-width="4.33" stroke="rgba(240, 247, 244, 0.1)"></path>
            <path d="M968.5 429 a6.5 6.5 0 1 0 13 0 a6.5 6.5 0 1 0 -13 0zM1124.5 481 a6.5 6.5 0 1 0 13 0 a6.5 6.5 0 1 0 -13 0z" fill="rgba(240, 247, 244, 0.1)"></path>
            <path d="M793 455L767 429L741 429L715 455" stroke-width="4.33" stroke="rgba(240, 247, 244, 0.1)"></path>
            <path d="M786.5 455 a6.5 6.5 0 1 0 13 0 a6.5 6.5 0 1 0 -13 0zM708.5 455 a6.5 6.5 0 1 0 13 0 a6.5 6.5 0 1 0 -13 0z" fill="rgba(240, 247, 244, 0.1)"></path>
            <path d="M455 533L455 481" stroke-width="4.33" stroke="rgba(240, 247, 244, 0.1)"></path>
            <path d="M448.5 533 a6.5 6.5 0 1 0 13 0 a6.5 6.5 0 1 0 -13 0zM448.5 481 a6.5 6.5 0 1 0 13 0 a6.5 6.5 0 1 0 -13 0z" fill="rgba(240, 247, 244, 0.1)"></path>
            <path d="M663 507L637 533L585 533L559 507" stroke-width="4.33" stroke="rgba(240, 247, 244, 0.1)"></path>
            <path d="M656.5 507 a6.5 6.5 0 1 0 13 0 a6.5 6.5 0 1 0 -13 0zM552.5 507 a6.5 6.5 0 1 0 13 0 a6.5 6.5 0 1 0 -13 0z" fill="rgba(240, 247, 244, 0.1)"></path>
            <path d="M689 91L585 195L585 247" stroke-width="4.33" stroke="rgba(240, 247, 244, 0.1)"></path>
            <path d="M682.5 91 a6.5 6.5 0 1 0 13 0 a6.5 6.5 0 1 0 -13 0zM578.5 247 a6.5 6.5 0 1 0 13 0 a6.5 6.5 0 1 0 -13 0z" fill="rgba(240, 247, 244, 0.1)"></path>
            <path d="M923 403L897 429L897 455" stroke-width="4.33" stroke="rgba(240, 247, 244, 0.1)"></path>
            <path d="M916.5 403 a6.5 6.5 0 1 0 13 0 a6.5 6.5 0 1 0 -13 0zM890.5 455 a6.5 6.5 0 1 0 13 0 a6.5 6.5 0 1 0 -13 0z" fill="rgba(240, 247, 244, 0.1)"></path>
            <path d="M117 221L65 221" stroke-width="4.33" stroke="rgba(240, 247, 244, 0.1)"></path>
            <path d="M110.5 221 a6.5 6.5 0 1 0 13 0 a6.5 6.5 0 1 0 -13 0zM58.5 221 a6.5 6.5 0 1 0 13 0 a6.5 6.5 0 1 0 -13 0z" fill="rgba(240, 247, 244, 0.1)"></path>
            <path d="M1157 143L1157 169L1183 195L1209 195" stroke-width="4.33" stroke="rgba(240, 247, 244, 0.1)"></path>
            <path d="M1150.5 143 a6.5 6.5 0 1 0 13 0 a6.5 6.5 0 1 0 -13 0zM1202.5 195 a6.5 6.5 0 1 0 13 0 a6.5 6.5 0 1 0 -13 0z" fill="rgba(240, 247, 244, 0.1)"></path>
            <path d="M1287 221L1261 195L1261 117" stroke-width="4.33" stroke="rgba(240, 247, 244, 0.1)"></path>
            <path d="M1280.5 221 a6.5 6.5 0 1 0 13 0 a6.5 6.5 0 1 0 -13 0zM1254.5 117 a6.5 6.5 0 1 0 13 0 a6.5 6.5 0 1 0 -13 0z" fill="rgba(240, 247, 244, 0.1)"></path>
            <path d="M845 429L845 507L819 533L689 533" stroke-width="4.33" stroke="rgba(240, 247, 244, 0.1)"></path>
            <path d="M838.5 429 a6.5 6.5 0 1 0 13 0 a6.5 6.5 0 1 0 -13 0zM682.5 533 a6.5 6.5 0 1 0 13 0 a6.5 6.5 0 1 0 -13 0z" fill="rgba(240, 247, 244, 0.1)"></path>
            <path d="M221 325L221 273" stroke-width="4.33" stroke="rgba(240, 247, 244, 0.1)"></path>
            <path d="M214.5 325 a6.5 6.5 0 1 0 13 0 a6.5 6.5 0 1 0 -13 0zM214.5 273 a6.5 6.5 0 1 0 13 0 a6.5 6.5 0 1 0 -13 0z" fill="rgba(240, 247, 244, 0.1)"></path>
            <path d="M1313 247L1313 39" stroke-width="4.33" stroke="rgba(240, 247, 244, 0.1)"></path>
            <path d="M1306.5 247 a6.5 6.5 0 1 0 13 0 a6.5 6.5 0 1 0 -13 0zM1306.5 39 a6.5 6.5 0 1 0 13 0 a6.5 6.5 0 1 0 -13 0z" fill="rgba(240, 247, 244, 0.1)"></path>
            <path d="M1105 91L1105 117L1131 143" stroke-width="4.33" stroke="rgba(240, 247, 244, 0.1)"></path>
            <path d="M1098.5 91 a6.5 6.5 0 1 0 13 0 a6.5 6.5 0 1 0 -13 0zM1124.5 143 a6.5 6.5 0 1 0 13 0 a6.5 6.5 0 1 0 -13 0z" fill="rgba(240, 247, 244, 0.1)"></path>
            <path d="M897 91L897 39" stroke-width="4.33" stroke="rgba(240, 247, 244, 0.1)"></path>
            <path d="M890.5 91 a6.5 6.5 0 1 0 13 0 a6.5 6.5 0 1 0 -13 0zM890.5 39 a6.5 6.5 0 1 0 13 0 a6.5 6.5 0 1 0 -13 0z" fill="rgba(240, 247, 244, 0.1)"></path>
            <path d="M507 39L585 39" stroke-width="4.33" stroke="rgba(240, 247, 244, 0.1)"></path>
            <path d="M500.5 39 a6.5 6.5 0 1 0 13 0 a6.5 6.5 0 1 0 -13 0zM578.5 39 a6.5 6.5 0 1 0 13 0 a6.5 6.5 0 1 0 -13 0z" fill="rgba(240, 247, 244, 0.1)"></path>
            <path d="M1027 481L975 481" stroke-width="4.33" stroke="rgba(240, 247, 244, 0.1)"></path>
            <path d="M1020.5 481 a6.5 6.5 0 1 0 13 0 a6.5 6.5 0 1 0 -13 0zM968.5 481 a6.5 6.5 0 1 0 13 0 a6.5 6.5 0 1 0 -13 0z" fill="rgba(240, 247, 244, 0.1)"></path>
            <path d="M611 91L663 91" stroke-width="4.33" stroke="rgba(240, 247, 244, 0.1)"></path>
            <path d="M604.5 91 a6.5 6.5 0 1 0 13 0 a6.5 6.5 0 1 0 -13 0zM656.5 91 a6.5 6.5 0 1 0 13 0 a6.5 6.5 0 1 0 -13 0z" fill="rgba(240, 247, 244, 0.1)"></path>
            <path d="M1391 351L1391 377L1417 403" stroke-width="4.33" stroke="rgba(240, 247, 244, 0.1)"></path>
            <path d="M1384.5 351 a6.5 6.5 0 1 0 13 0 a6.5 6.5 0 1 0 -13 0zM1410.5 403 a6.5 6.5 0 1 0 13 0 a6.5 6.5 0 1 0 -13 0z" fill="rgba(240, 247, 244, 0.1)"></path>
            <path d="M1417 351L1417 299" stroke-width="4.33" stroke="rgba(240, 247, 244, 0.1)"></path>
            <path d="M1410.5 351 a6.5 6.5 0 1 0 13 0 a6.5 6.5 0 1 0 -13 0zM1410.5 299 a6.5 6.5 0 1 0 13 0 a6.5 6.5 0 1 0 -13 0z" fill="rgba(240, 247, 244, 0.1)"></path>
            <path d="M299 65L325 65L403 143L403 169" stroke-width="4.33" stroke="rgba(240, 247, 244, 0.1)"></path>
            <path d="M292.5 65 a6.5 6.5 0 1 0 13 0 a6.5 6.5 0 1 0 -13 0zM396.5 169 a6.5 6.5 0 1 0 13 0 a6.5 6.5 0 1 0 -13 0z" fill="rgba(240, 247, 244, 0.1)"></path>
            <path d="M221 65L273 117L299 117" stroke-width="4.33" stroke="rgba(240, 247, 244, 0.1)"></path>
            <path d="M214.5 65 a6.5 6.5 0 1 0 13 0 a6.5 6.5 0 1 0 -13 0zM292.5 117 a6.5 6.5 0 1 0 13 0 a6.5 6.5 0 1 0 -13 0z" fill="rgba(240, 247, 244, 0.1)"></path>
            <path d="M585 377L559 377L533 351L533 325" stroke-width="4.33" stroke="rgba(240, 247, 244, 0.1)"></path>
            <path d="M578.5 377 a6.5 6.5 0 1 0 13 0 a6.5 6.5 0 1 0 -13 0zM526.5 325 a6.5 6.5 0 1 0 13 0 a6.5 6.5 0 1 0 -13 0z" fill="rgba(240, 247, 244, 0.1)"></path>
            <path d="M507 65L559 65" stroke-width="4.33" stroke="rgba(240, 247, 244, 0.1)"></path>
            <path d="M500.5 65 a6.5 6.5 0 1 0 13 0 a6.5 6.5 0 1 0 -13 0zM552.5 65 a6.5 6.5 0 1 0 13 0 a6.5 6.5 0 1 0 -13 0z" fill="rgba(240, 247, 244, 0.1)"></path>
            <path d="M91 247L65 247L39 273L39 325" stroke-width="4.33" stroke="rgba(240, 247, 244, 0.1)"></path>
            <path d="M84.5 247 a6.5 6.5 0 1 0 13 0 a6.5 6.5 0 1 0 -13 0zM32.5 325 a6.5 6.5 0 1 0 13 0 a6.5 6.5 0 1 0 -13 0z" fill="rgba(240, 247, 244, 0.1)"></path>
            <path d="M871 351L871 377L819 429L819 481" stroke-width="4.33" stroke="rgba(240, 247, 244, 0.1)"></path>
            <path d="M864.5 351 a6.5 6.5 0 1 0 13 0 a6.5 6.5 0 1 0 -13 0zM812.5 481 a6.5 6.5 0 1 0 13 0 a6.5 6.5 0 1 0 -13 0z" fill="rgba(240, 247, 244, 0.1)"></path>
            <path d="M793 221L637 221L611 195" stroke-width="4.33" stroke="rgba(240, 247, 244, 0.1)"></path>
            <path d="M786.5 221 a6.5 6.5 0 1 0 13 0 a6.5 6.5 0 1 0 -13 0zM604.5 195 a6.5 6.5 0 1 0 13 0 a6.5 6.5 0 1 0 -13 0z" fill="rgba(240, 247, 244, 0.1)"></path>
            <path d="M299 221L299 169" stroke-width="4.33" stroke="rgba(240, 247, 244, 0.1)"></path>
            <path d="M292.5 221 a6.5 6.5 0 1 0 13 0 a6.5 6.5 0 1 0 -13 0zM292.5 169 a6.5 6.5 0 1 0 13 0 a6.5 6.5 0 1 0 -13 0z" fill="rgba(240, 247, 244, 0.1)"></path>
            <path d="M1209 325L1235 351L1261 351" stroke-width="4.33" stroke="rgba(240, 247, 244, 0.1)"></path>
            <path d="M1202.5 325 a6.5 6.5 0 1 0 13 0 a6.5 6.5 0 1 0 -13 0zM1254.5 351 a6.5 6.5 0 1 0 13 0 a6.5 6.5 0 1 0 -13 0z" fill="rgba(240, 247, 244, 0.1)"></path>
            <path d="M741 143L741 195" stroke-width="4.33" stroke="rgba(240, 247, 244, 0.1)"></path>
            <path d="M734.5 143 a6.5 6.5 0 1 0 13 0 a6.5 6.5 0 1 0 -13 0zM734.5 195 a6.5 6.5 0 1 0 13 0 a6.5 6.5 0 1 0 -13 0z" fill="rgba(240, 247, 244, 0.1)"></path>
            <path d="M117 403L117 429L143 455" stroke-width="4.33" stroke="rgba(240, 247, 244, 0.1)"></path>
            <path d="M110.5 403 a6.5 6.5 0 1 0 13 0 a6.5 6.5 0 1 0 -13 0zM136.5 455 a6.5 6.5 0 1 0 13 0 a6.5 6.5 0 1 0 -13 0z" fill="rgba(240, 247, 244, 0.1)"></path>
            <path d="M585 351L637 299L663 299" stroke-width="4.33" stroke="rgba(240, 247, 244, 0.1)"></path>
            <path d="M578.5 351 a6.5 6.5 0 1 0 13 0 a6.5 6.5 0 1 0 -13 0zM656.5 299 a6.5 6.5 0 1 0 13 0 a6.5 6.5 0 1 0 -13 0z" fill="rgba(240, 247, 244, 0.1)"></path>
            <path d="M819 169L793 195L767 195" stroke-width="4.33" stroke="rgba(240, 247, 244, 0.1)"></path>
            <path d="M812.5 169 a6.5 6.5 0 1 0 13 0 a6.5 6.5 0 1 0 -13 0zM760.5 195 a6.5 6.5 0 1 0 13 0 a6.5 6.5 0 1 0 -13 0z" fill="rgba(240, 247, 244, 0.1)"></path>
            <path d="M1183 117L1183 169" stroke-width="4.33" stroke="rgba(240, 247, 244, 0.1)"></path>
            <path d="M1176.5 117 a6.5 6.5 0 1 0 13 0 a6.5 6.5 0 1 0 -13 0zM1176.5 169 a6.5 6.5 0 1 0 13 0 a6.5 6.5 0 1 0 -13 0z" fill="rgba(240, 247, 244, 0.1)"></path>
            <path d="M65 455L13 455" stroke-width="4.33" stroke="rgba(240, 247, 244, 0.1)"></path>
            <path d="M58.5 455 a6.5 6.5 0 1 0 13 0 a6.5 6.5 0 1 0 -13 0zM6.5 455 a6.5 6.5 0 1 0 13 0 a6.5 6.5 0 1 0 -13 0z" fill="rgba(240, 247, 244, 0.1)"></path>
            <path d="M1027 117L1027 91L975 39L923 39" stroke-width="4.33" stroke="rgba(240, 247, 244, 0.1)"></path>
            <path d="M1020.5 117 a6.5 6.5 0 1 0 13 0 a6.5 6.5 0 1 0 -13 0zM916.5 39 a6.5 6.5 0 1 0 13 0 a6.5 6.5 0 1 0 -13 0z" fill="rgba(240, 247, 244, 0.1)"></path>
            <path d="M767 143L819 143" stroke-width="4.33" stroke="rgba(240, 247, 244, 0.1)"></path>
            <path d="M760.5 143 a6.5 6.5 0 1 0 13 0 a6.5 6.5 0 1 0 -13 0zM812.5 143 a6.5 6.5 0 1 0 13 0 a6.5 6.5 0 1 0 -13 0z" fill="rgba(240, 247, 244, 0.1)"></path>
            <path d="M1183 39L1131 39L1105 65" stroke-width="4.33" stroke="rgba(240, 247, 244, 0.1)"></path>
            <path d="M1176.5 39 a6.5 6.5 0 1 0 13 0 a6.5 6.5 0 1 0 -13 0zM1098.5 65 a6.5 6.5 0 1 0 13 0 a6.5 6.5 0 1 0 -13 0z" fill="rgba(240, 247, 244, 0.1)"></path>
            <path d="M845 351L819 377L819 403L793 429" stroke-width="4.33" stroke="rgba(240, 247, 244, 0.1)"></path>
            <path d="M838.5 351 a6.5 6.5 0 1 0 13 0 a6.5 6.5 0 1 0 -13 0zM786.5 429 a6.5 6.5 0 1 0 13 0 a6.5 6.5 0 1 0 -13 0z" fill="rgba(240, 247, 244, 0.1)"></path>
            <path d="M715 195L637 195" stroke-width="4.33" stroke="rgba(240, 247, 244, 0.1)"></path>
            <path d="M708.5 195 a6.5 6.5 0 1 0 13 0 a6.5 6.5 0 1 0 -13 0zM630.5 195 a6.5 6.5 0 1 0 13 0 a6.5 6.5 0 1 0 -13 0z" fill="rgba(240, 247, 244, 0.1)"></path>
            <path d="M429 299L429 351" stroke-width="4.33" stroke="rgba(240, 247, 244, 0.1)"></path>
            <path d="M422.5 299 a6.5 6.5 0 1 0 13 0 a6.5 6.5 0 1 0 -13 0zM422.5 351 a6.5 6.5 0 1 0 13 0 a6.5 6.5 0 1 0 -13 0z" fill="rgba(240, 247, 244, 0.1)"></path>
            <path d="M403 39L351 39" stroke-width="4.33" stroke="rgba(240, 247, 244, 0.1)"></path>
            <path d="M396.5 39 a6.5 6.5 0 1 0 13 0 a6.5 6.5 0 1 0 -13 0zM344.5 39 a6.5 6.5 0 1 0 13 0 a6.5 6.5 0 1 0 -13 0z" fill="rgba(240, 247, 244, 0.1)"></path>
            <path d="M65 403L65 351" stroke-width="4.33" stroke="rgba(240, 247, 244, 0.1)"></path>
            <path d="M58.5 403 a6.5 6.5 0 1 0 13 0 a6.5 6.5 0 1 0 -13 0zM58.5 351 a6.5 6.5 0 1 0 13 0 a6.5 6.5 0 1 0 -13 0z" fill="rgba(240, 247, 244, 0.1)"></path>
            <path d="M377 533L377 481" stroke-width="4.33" stroke="rgba(240, 247, 244, 0.1)"></path>
            <path d="M370.5 533 a6.5 6.5 0 1 0 13 0 a6.5 6.5 0 1 0 -13 0zM370.5 481 a6.5 6.5 0 1 0 13 0 a6.5 6.5 0 1 0 -13 0z" fill="rgba(240, 247, 244, 0.1)"></path>
        </g>
    </g>
    <defs>
        <mask id="SvgjsMask1045">
            <rect width="1440" height="560" fill="#ffffff"></rect>
        </mask>
        <mask id="SvgjsMask1046">
            <rect width="1440" height="560" fill="white"></rect>
            <path d="M139.75 325 a3.25 3.25 0 1 0 6.5 0 a3.25 3.25 0 1 0 -6.5 0zM295.75 559 a3.25 3.25 0 1 0 6.5 0 a3.25 3.25 0 1 0 -6.5 0z" fill="black"></path>
            <path d="M919.75 13 a3.25 3.25 0 1 0 6.5 0 a3.25 3.25 0 1 0 -6.5 0zM425.75 13 a3.25 3.25 0 1 0 6.5 0 a3.25 3.25 0 1 0 -6.5 0z" fill="black"></path>
            <path d="M1335.75 377 a3.25 3.25 0 1 0 6.5 0 a3.25 3.25 0 1 0 -6.5 0zM867.75 91 a3.25 3.25 0 1 0 6.5 0 a3.25 3.25 0 1 0 -6.5 0z" fill="black"></path>
            <path d="M1439.75 273 a3.25 3.25 0 1 0 6.5 0 a3.25 3.25 0 1 0 -6.5 0zM945.75 13 a3.25 3.25 0 1 0 6.5 0 a3.25 3.25 0 1 0 -6.5 0z" fill="black"></path>
            <path d="M1335.75 507 a3.25 3.25 0 1 0 6.5 0 a3.25 3.25 0 1 0 -6.5 0zM1283.75 455 a3.25 3.25 0 1 0 6.5 0 a3.25 3.25 0 1 0 -6.5 0z" fill="black"></path>
            <path d="M9.75 91 a3.25 3.25 0 1 0 6.5 0 a3.25 3.25 0 1 0 -6.5 0zM425.75 247 a3.25 3.25 0 1 0 6.5 0 a3.25 3.25 0 1 0 -6.5 0z" fill="black"></path>
            <path d="M971.75 325 a3.25 3.25 0 1 0 6.5 0 a3.25 3.25 0 1 0 -6.5 0zM841.75 39 a3.25 3.25 0 1 0 6.5 0 a3.25 3.25 0 1 0 -6.5 0z" fill="black"></path>
            <path d="M451.75 221 a3.25 3.25 0 1 0 6.5 0 a3.25 3.25 0 1 0 -6.5 0zM529.75 559 a3.25 3.25 0 1 0 6.5 0 a3.25 3.25 0 1 0 -6.5 0z" fill="black"></path>
            <path d="M971.75 91 a3.25 3.25 0 1 0 6.5 0 a3.25 3.25 0 1 0 -6.5 0zM919.75 143 a3.25 3.25 0 1 0 6.5 0 a3.25 3.25 0 1 0 -6.5 0z" fill="black"></path>
            <path d="M243.75 299 a3.25 3.25 0 1 0 6.5 0 a3.25 3.25 0 1 0 -6.5 0zM9.75 13 a3.25 3.25 0 1 0 6.5 0 a3.25 3.25 0 1 0 -6.5 0z" fill="black"></path>
            <path d="M685.75 507 a3.25 3.25 0 1 0 6.5 0 a3.25 3.25 0 1 0 -6.5 0zM555.75 169 a3.25 3.25 0 1 0 6.5 0 a3.25 3.25 0 1 0 -6.5 0z" fill="black"></path>
            <path d="M763.75 39 a3.25 3.25 0 1 0 6.5 0 a3.25 3.25 0 1 0 -6.5 0zM477.75 273 a3.25 3.25 0 1 0 6.5 0 a3.25 3.25 0 1 0 -6.5 0z" fill="black"></path>
            <path d="M1257.75 507 a3.25 3.25 0 1 0 6.5 0 a3.25 3.25 0 1 0 -6.5 0zM1257.75 559 a3.25 3.25 0 1 0 6.5 0 a3.25 3.25 0 1 0 -6.5 0z" fill="black"></path>
            <path d="M1283.75 559 a3.25 3.25 0 1 0 6.5 0 a3.25 3.25 0 1 0 -6.5 0zM1439.75 299 a3.25 3.25 0 1 0 6.5 0 a3.25 3.25 0 1 0 -6.5 0z" fill="black"></path>
            <path d="M139.75 65 a3.25 3.25 0 1 0 6.5 0 a3.25 3.25 0 1 0 -6.5 0zM35.75 39 a3.25 3.25 0 1 0 6.5 0 a3.25 3.25 0 1 0 -6.5 0z" fill="black"></path>
            <path d="M1023.75 195 a3.25 3.25 0 1 0 6.5 0 a3.25 3.25 0 1 0 -6.5 0zM1075.75 143 a3.25 3.25 0 1 0 6.5 0 a3.25 3.25 0 1 0 -6.5 0z" fill="black"></path>
            <path d="M1023.75 299 a3.25 3.25 0 1 0 6.5 0 a3.25 3.25 0 1 0 -6.5 0zM1231.75 559 a3.25 3.25 0 1 0 6.5 0 a3.25 3.25 0 1 0 -6.5 0z" fill="black"></path>
            <path d="M399.75 13 a3.25 3.25 0 1 0 6.5 0 a3.25 3.25 0 1 0 -6.5 0zM35.75 13 a3.25 3.25 0 1 0 6.5 0 a3.25 3.25 0 1 0 -6.5 0z" fill="black"></path>
            <path d="M1387.75 221 a3.25 3.25 0 1 0 6.5 0 a3.25 3.25 0 1 0 -6.5 0zM1387.75 13 a3.25 3.25 0 1 0 6.5 0 a3.25 3.25 0 1 0 -6.5 0z" fill="black"></path>
            <path d="M581.75 403 a3.25 3.25 0 1 0 6.5 0 a3.25 3.25 0 1 0 -6.5 0zM971.75 299 a3.25 3.25 0 1 0 6.5 0 a3.25 3.25 0 1 0 -6.5 0z" fill="black"></path>
            <path d="M945.75 559 a3.25 3.25 0 1 0 6.5 0 a3.25 3.25 0 1 0 -6.5 0zM1205.75 559 a3.25 3.25 0 1 0 6.5 0 a3.25 3.25 0 1 0 -6.5 0z" fill="black"></path>
            <path d="M217.75 143 a3.25 3.25 0 1 0 6.5 0 a3.25 3.25 0 1 0 -6.5 0zM87.75 65 a3.25 3.25 0 1 0 6.5 0 a3.25 3.25 0 1 0 -6.5 0z" fill="black"></path>
            <path d="M945.75 455 a3.25 3.25 0 1 0 6.5 0 a3.25 3.25 0 1 0 -6.5 0zM659.75 559 a3.25 3.25 0 1 0 6.5 0 a3.25 3.25 0 1 0 -6.5 0z" fill="black"></path>
            <path d="M1101.75 39 a3.25 3.25 0 1 0 6.5 0 a3.25 3.25 0 1 0 -6.5 0zM997.75 13 a3.25 3.25 0 1 0 6.5 0 a3.25 3.25 0 1 0 -6.5 0z" fill="black"></path>
            <path d="M87.75 429 a3.25 3.25 0 1 0 6.5 0 a3.25 3.25 0 1 0 -6.5 0zM9.75 429 a3.25 3.25 0 1 0 6.5 0 a3.25 3.25 0 1 0 -6.5 0z" fill="black"></path>
            <path d="M321.75 351 a3.25 3.25 0 1 0 6.5 0 a3.25 3.25 0 1 0 -6.5 0zM321.75 559 a3.25 3.25 0 1 0 6.5 0 a3.25 3.25 0 1 0 -6.5 0z" fill="black"></path>
            <path d="M659.75 65 a3.25 3.25 0 1 0 6.5 0 a3.25 3.25 0 1 0 -6.5 0zM815.75 65 a3.25 3.25 0 1 0 6.5 0 a3.25 3.25 0 1 0 -6.5 0z" fill="black"></path>
            <path d="M139.75 247 a3.25 3.25 0 1 0 6.5 0 a3.25 3.25 0 1 0 -6.5 0zM9.75 377 a3.25 3.25 0 1 0 6.5 0 a3.25 3.25 0 1 0 -6.5 0z" fill="black"></path>
            <path d="M61.75 559 a3.25 3.25 0 1 0 6.5 0 a3.25 3.25 0 1 0 -6.5 0zM269.75 559 a3.25 3.25 0 1 0 6.5 0 a3.25 3.25 0 1 0 -6.5 0z" fill="black"></path>
            <path d="M113.75 559 a3.25 3.25 0 1 0 6.5 0 a3.25 3.25 0 1 0 -6.5 0zM243.75 455 a3.25 3.25 0 1 0 6.5 0 a3.25 3.25 0 1 0 -6.5 0z" fill="black"></path>
            <path d="M35.75 247 a3.25 3.25 0 1 0 6.5 0 a3.25 3.25 0 1 0 -6.5 0zM9.75 117 a3.25 3.25 0 1 0 6.5 0 a3.25 3.25 0 1 0 -6.5 0z" fill="black"></path>
            <path d="M1075.75 91 a3.25 3.25 0 1 0 6.5 0 a3.25 3.25 0 1 0 -6.5 0zM1075.75 39 a3.25 3.25 0 1 0 6.5 0 a3.25 3.25 0 1 0 -6.5 0z" fill="black"></path>
            <path d="M893.75 351 a3.25 3.25 0 1 0 6.5 0 a3.25 3.25 0 1 0 -6.5 0zM1205.75 533 a3.25 3.25 0 1 0 6.5 0 a3.25 3.25 0 1 0 -6.5 0z" fill="black"></path>
            <path d="M347.75 429 a3.25 3.25 0 1 0 6.5 0 a3.25 3.25 0 1 0 -6.5 0zM347.75 559 a3.25 3.25 0 1 0 6.5 0 a3.25 3.25 0 1 0 -6.5 0z" fill="black"></path>
            <path d="M1101.75 195 a3.25 3.25 0 1 0 6.5 0 a3.25 3.25 0 1 0 -6.5 0zM1049.75 273 a3.25 3.25 0 1 0 6.5 0 a3.25 3.25 0 1 0 -6.5 0z" fill="black"></path>
            <path d="M789.75 481 a3.25 3.25 0 1 0 6.5 0 a3.25 3.25 0 1 0 -6.5 0zM503.75 455 a3.25 3.25 0 1 0 6.5 0 a3.25 3.25 0 1 0 -6.5 0z" fill="black"></path>
            <path d="M633.75 169 a3.25 3.25 0 1 0 6.5 0 a3.25 3.25 0 1 0 -6.5 0zM815.75 91 a3.25 3.25 0 1 0 6.5 0 a3.25 3.25 0 1 0 -6.5 0z" fill="black"></path>
            <path d="M1413.75 169 a3.25 3.25 0 1 0 6.5 0 a3.25 3.25 0 1 0 -6.5 0zM1439.75 247 a3.25 3.25 0 1 0 6.5 0 a3.25 3.25 0 1 0 -6.5 0z" fill="black"></path>
            <path d="M269.75 169 a3.25 3.25 0 1 0 6.5 0 a3.25 3.25 0 1 0 -6.5 0zM139.75 39 a3.25 3.25 0 1 0 6.5 0 a3.25 3.25 0 1 0 -6.5 0z" fill="black"></path>
            <path d="M321.75 117 a3.25 3.25 0 1 0 6.5 0 a3.25 3.25 0 1 0 -6.5 0zM165.75 39 a3.25 3.25 0 1 0 6.5 0 a3.25 3.25 0 1 0 -6.5 0z" fill="black"></path>
            <path d="M1205.75 403 a3.25 3.25 0 1 0 6.5 0 a3.25 3.25 0 1 0 -6.5 0zM1075.75 273 a3.25 3.25 0 1 0 6.5 0 a3.25 3.25 0 1 0 -6.5 0z" fill="black"></path>
            <path d="M711.75 143 a3.25 3.25 0 1 0 6.5 0 a3.25 3.25 0 1 0 -6.5 0zM971.75 273 a3.25 3.25 0 1 0 6.5 0 a3.25 3.25 0 1 0 -6.5 0z" fill="black"></path>
            <path d="M529.75 377 a3.25 3.25 0 1 0 6.5 0 a3.25 3.25 0 1 0 -6.5 0zM945.75 325 a3.25 3.25 0 1 0 6.5 0 a3.25 3.25 0 1 0 -6.5 0z" fill="black"></path>
            <path d="M9.75 195 a3.25 3.25 0 1 0 6.5 0 a3.25 3.25 0 1 0 -6.5 0zM9.75 351 a3.25 3.25 0 1 0 6.5 0 a3.25 3.25 0 1 0 -6.5 0z" fill="black"></path>
            <path d="M347.75 377 a3.25 3.25 0 1 0 6.5 0 a3.25 3.25 0 1 0 -6.5 0zM425.75 273 a3.25 3.25 0 1 0 6.5 0 a3.25 3.25 0 1 0 -6.5 0z" fill="black"></path>
            <path d="M139.75 117 a3.25 3.25 0 1 0 6.5 0 a3.25 3.25 0 1 0 -6.5 0zM113.75 65 a3.25 3.25 0 1 0 6.5 0 a3.25 3.25 0 1 0 -6.5 0z" fill="black"></path>
            <path d="M815.75 247 a3.25 3.25 0 1 0 6.5 0 a3.25 3.25 0 1 0 -6.5 0zM945.75 273 a3.25 3.25 0 1 0 6.5 0 a3.25 3.25 0 1 0 -6.5 0z" fill="black"></path>
            <path d="M685.75 351 a3.25 3.25 0 1 0 6.5 0 a3.25 3.25 0 1 0 -6.5 0zM607.75 429 a3.25 3.25 0 1 0 6.5 0 a3.25 3.25 0 1 0 -6.5 0z" fill="black"></path>
            <path d="M1361.75 221 a3.25 3.25 0 1 0 6.5 0 a3.25 3.25 0 1 0 -6.5 0zM1361.75 13 a3.25 3.25 0 1 0 6.5 0 a3.25 3.25 0 1 0 -6.5 0z" fill="black"></path>
            <path d="M425.75 117 a3.25 3.25 0 1 0 6.5 0 a3.25 3.25 0 1 0 -6.5 0zM269.75 39 a3.25 3.25 0 1 0 6.5 0 a3.25 3.25 0 1 0 -6.5 0z" fill="black"></path>
            <path d="M997.75 117 a3.25 3.25 0 1 0 6.5 0 a3.25 3.25 0 1 0 -6.5 0zM971.75 117 a3.25 3.25 0 1 0 6.5 0 a3.25 3.25 0 1 0 -6.5 0z" fill="black"></path>
            <path d="M1283.75 351 a3.25 3.25 0 1 0 6.5 0 a3.25 3.25 0 1 0 -6.5 0zM1205.75 429 a3.25 3.25 0 1 0 6.5 0 a3.25 3.25 0 1 0 -6.5 0z" fill="black"></path>
            <path d="M373.75 65 a3.25 3.25 0 1 0 6.5 0 a3.25 3.25 0 1 0 -6.5 0zM607.75 39 a3.25 3.25 0 1 0 6.5 0 a3.25 3.25 0 1 0 -6.5 0z" fill="black"></path>
            <path d="M763.75 377 a3.25 3.25 0 1 0 6.5 0 a3.25 3.25 0 1 0 -6.5 0zM685.75 455 a3.25 3.25 0 1 0 6.5 0 a3.25 3.25 0 1 0 -6.5 0z" fill="black"></path>
            <path d="M399.75 559 a3.25 3.25 0 1 0 6.5 0 a3.25 3.25 0 1 0 -6.5 0zM399.75 299 a3.25 3.25 0 1 0 6.5 0 a3.25 3.25 0 1 0 -6.5 0z" fill="black"></path>
            <path d="M113.75 455 a3.25 3.25 0 1 0 6.5 0 a3.25 3.25 0 1 0 -6.5 0zM9.75 507 a3.25 3.25 0 1 0 6.5 0 a3.25 3.25 0 1 0 -6.5 0z" fill="black"></path>
            <path d="M1101.75 533 a3.25 3.25 0 1 0 6.5 0 a3.25 3.25 0 1 0 -6.5 0zM893.75 559 a3.25 3.25 0 1 0 6.5 0 a3.25 3.25 0 1 0 -6.5 0z" fill="black"></path>
            <path d="M87.75 403 a3.25 3.25 0 1 0 6.5 0 a3.25 3.25 0 1 0 -6.5 0zM165.75 273 a3.25 3.25 0 1 0 6.5 0 a3.25 3.25 0 1 0 -6.5 0z" fill="black"></path>
            <path d="M1283.75 91 a3.25 3.25 0 1 0 6.5 0 a3.25 3.25 0 1 0 -6.5 0zM1283.75 13 a3.25 3.25 0 1 0 6.5 0 a3.25 3.25 0 1 0 -6.5 0z" fill="black"></path>
            <path d="M867.75 273 a3.25 3.25 0 1 0 6.5 0 a3.25 3.25 0 1 0 -6.5 0zM503.75 403 a3.25 3.25 0 1 0 6.5 0 a3.25 3.25 0 1 0 -6.5 0z" fill="black"></path>
            <path d="M1049.75 221 a3.25 3.25 0 1 0 6.5 0 a3.25 3.25 0 1 0 -6.5 0zM997.75 221 a3.25 3.25 0 1 0 6.5 0 a3.25 3.25 0 1 0 -6.5 0z" fill="black"></path>
            <path d="M321.75 169 a3.25 3.25 0 1 0 6.5 0 a3.25 3.25 0 1 0 -6.5 0zM217.75 351 a3.25 3.25 0 1 0 6.5 0 a3.25 3.25 0 1 0 -6.5 0z" fill="black"></path>
            <path d="M1231.75 65 a3.25 3.25 0 1 0 6.5 0 a3.25 3.25 0 1 0 -6.5 0zM1231.75 247 a3.25 3.25 0 1 0 6.5 0 a3.25 3.25 0 1 0 -6.5 0z" fill="black"></path>
            <path d="M867.75 533 a3.25 3.25 0 1 0 6.5 0 a3.25 3.25 0 1 0 -6.5 0zM971.75 377 a3.25 3.25 0 1 0 6.5 0 a3.25 3.25 0 1 0 -6.5 0z" fill="black"></path>
            <path d="M1153.75 65 a3.25 3.25 0 1 0 6.5 0 a3.25 3.25 0 1 0 -6.5 0zM1257.75 13 a3.25 3.25 0 1 0 6.5 0 a3.25 3.25 0 1 0 -6.5 0z" fill="black"></path>
            <path d="M243.75 247 a3.25 3.25 0 1 0 6.5 0 a3.25 3.25 0 1 0 -6.5 0zM295.75 273 a3.25 3.25 0 1 0 6.5 0 a3.25 3.25 0 1 0 -6.5 0z" fill="black"></path>
            <path d="M633.75 247 a3.25 3.25 0 1 0 6.5 0 a3.25 3.25 0 1 0 -6.5 0zM893.75 221 a3.25 3.25 0 1 0 6.5 0 a3.25 3.25 0 1 0 -6.5 0z" fill="black"></path>
            <path d="M373.75 221 a3.25 3.25 0 1 0 6.5 0 a3.25 3.25 0 1 0 -6.5 0zM529.75 117 a3.25 3.25 0 1 0 6.5 0 a3.25 3.25 0 1 0 -6.5 0z" fill="black"></path>
            <path d="M373.75 429 a3.25 3.25 0 1 0 6.5 0 a3.25 3.25 0 1 0 -6.5 0zM373.75 299 a3.25 3.25 0 1 0 6.5 0 a3.25 3.25 0 1 0 -6.5 0z" fill="black"></path>
            <path d="M1127.75 91 a3.25 3.25 0 1 0 6.5 0 a3.25 3.25 0 1 0 -6.5 0zM1205.75 91 a3.25 3.25 0 1 0 6.5 0 a3.25 3.25 0 1 0 -6.5 0z" fill="black"></path>
            <path d="M9.75 559 a3.25 3.25 0 1 0 6.5 0 a3.25 3.25 0 1 0 -6.5 0zM61.75 533 a3.25 3.25 0 1 0 6.5 0 a3.25 3.25 0 1 0 -6.5 0z" fill="black"></path>
            <path d="M1075.75 429 a3.25 3.25 0 1 0 6.5 0 a3.25 3.25 0 1 0 -6.5 0zM1023.75 377 a3.25 3.25 0 1 0 6.5 0 a3.25 3.25 0 1 0 -6.5 0z" fill="black"></path>
            <path d="M217.75 221 a3.25 3.25 0 1 0 6.5 0 a3.25 3.25 0 1 0 -6.5 0zM165.75 169 a3.25 3.25 0 1 0 6.5 0 a3.25 3.25 0 1 0 -6.5 0z" fill="black"></path>
            <path d="M1179.75 247 a3.25 3.25 0 1 0 6.5 0 a3.25 3.25 0 1 0 -6.5 0zM1127.75 195 a3.25 3.25 0 1 0 6.5 0 a3.25 3.25 0 1 0 -6.5 0z" fill="black"></path>
            <path d="M1387.75 429 a3.25 3.25 0 1 0 6.5 0 a3.25 3.25 0 1 0 -6.5 0zM1309.75 429 a3.25 3.25 0 1 0 6.5 0 a3.25 3.25 0 1 0 -6.5 0z" fill="black"></path>
            <path d="M1361.75 559 a3.25 3.25 0 1 0 6.5 0 a3.25 3.25 0 1 0 -6.5 0zM1439.75 455 a3.25 3.25 0 1 0 6.5 0 a3.25 3.25 0 1 0 -6.5 0z" fill="black"></path>
            <path d="M1413.75 429 a3.25 3.25 0 1 0 6.5 0 a3.25 3.25 0 1 0 -6.5 0zM1127.75 221 a3.25 3.25 0 1 0 6.5 0 a3.25 3.25 0 1 0 -6.5 0z" fill="black"></path>
            <path d="M399.75 221 a3.25 3.25 0 1 0 6.5 0 a3.25 3.25 0 1 0 -6.5 0zM477.75 143 a3.25 3.25 0 1 0 6.5 0 a3.25 3.25 0 1 0 -6.5 0z" fill="black"></path>
            <path d="M971.75 507 a3.25 3.25 0 1 0 6.5 0 a3.25 3.25 0 1 0 -6.5 0zM1179.75 533 a3.25 3.25 0 1 0 6.5 0 a3.25 3.25 0 1 0 -6.5 0z" fill="black"></path>
            <path d="M1335.75 117 a3.25 3.25 0 1 0 6.5 0 a3.25 3.25 0 1 0 -6.5 0zM1335.75 247 a3.25 3.25 0 1 0 6.5 0 a3.25 3.25 0 1 0 -6.5 0z" fill="black"></path>
            <path d="M1439.75 533 a3.25 3.25 0 1 0 6.5 0 a3.25 3.25 0 1 0 -6.5 0zM1387.75 559 a3.25 3.25 0 1 0 6.5 0 a3.25 3.25 0 1 0 -6.5 0z" fill="black"></path>
            <path d="M425.75 377 a3.25 3.25 0 1 0 6.5 0 a3.25 3.25 0 1 0 -6.5 0zM503.75 559 a3.25 3.25 0 1 0 6.5 0 a3.25 3.25 0 1 0 -6.5 0z" fill="black"></path>
            <path d="M1335.75 91 a3.25 3.25 0 1 0 6.5 0 a3.25 3.25 0 1 0 -6.5 0zM1335.75 13 a3.25 3.25 0 1 0 6.5 0 a3.25 3.25 0 1 0 -6.5 0z" fill="black"></path>
            <path d="M1179.75 325 a3.25 3.25 0 1 0 6.5 0 a3.25 3.25 0 1 0 -6.5 0zM1231.75 377 a3.25 3.25 0 1 0 6.5 0 a3.25 3.25 0 1 0 -6.5 0z" fill="black"></path>
            <path d="M295.75 143 a3.25 3.25 0 1 0 6.5 0 a3.25 3.25 0 1 0 -6.5 0zM191.75 65 a3.25 3.25 0 1 0 6.5 0 a3.25 3.25 0 1 0 -6.5 0z" fill="black"></path>
            <path d="M971.75 429 a3.25 3.25 0 1 0 6.5 0 a3.25 3.25 0 1 0 -6.5 0zM1127.75 481 a3.25 3.25 0 1 0 6.5 0 a3.25 3.25 0 1 0 -6.5 0z" fill="black"></path>
            <path d="M789.75 455 a3.25 3.25 0 1 0 6.5 0 a3.25 3.25 0 1 0 -6.5 0zM711.75 455 a3.25 3.25 0 1 0 6.5 0 a3.25 3.25 0 1 0 -6.5 0z" fill="black"></path>
            <path d="M451.75 533 a3.25 3.25 0 1 0 6.5 0 a3.25 3.25 0 1 0 -6.5 0zM451.75 481 a3.25 3.25 0 1 0 6.5 0 a3.25 3.25 0 1 0 -6.5 0z" fill="black"></path>
            <path d="M659.75 507 a3.25 3.25 0 1 0 6.5 0 a3.25 3.25 0 1 0 -6.5 0zM555.75 507 a3.25 3.25 0 1 0 6.5 0 a3.25 3.25 0 1 0 -6.5 0z" fill="black"></path>
            <path d="M685.75 91 a3.25 3.25 0 1 0 6.5 0 a3.25 3.25 0 1 0 -6.5 0zM581.75 247 a3.25 3.25 0 1 0 6.5 0 a3.25 3.25 0 1 0 -6.5 0z" fill="black"></path>
            <path d="M919.75 403 a3.25 3.25 0 1 0 6.5 0 a3.25 3.25 0 1 0 -6.5 0zM893.75 455 a3.25 3.25 0 1 0 6.5 0 a3.25 3.25 0 1 0 -6.5 0z" fill="black"></path>
            <path d="M113.75 221 a3.25 3.25 0 1 0 6.5 0 a3.25 3.25 0 1 0 -6.5 0zM61.75 221 a3.25 3.25 0 1 0 6.5 0 a3.25 3.25 0 1 0 -6.5 0z" fill="black"></path>
            <path d="M1153.75 143 a3.25 3.25 0 1 0 6.5 0 a3.25 3.25 0 1 0 -6.5 0zM1205.75 195 a3.25 3.25 0 1 0 6.5 0 a3.25 3.25 0 1 0 -6.5 0z" fill="black"></path>
            <path d="M1283.75 221 a3.25 3.25 0 1 0 6.5 0 a3.25 3.25 0 1 0 -6.5 0zM1257.75 117 a3.25 3.25 0 1 0 6.5 0 a3.25 3.25 0 1 0 -6.5 0z" fill="black"></path>
            <path d="M841.75 429 a3.25 3.25 0 1 0 6.5 0 a3.25 3.25 0 1 0 -6.5 0zM685.75 533 a3.25 3.25 0 1 0 6.5 0 a3.25 3.25 0 1 0 -6.5 0z" fill="black"></path>
            <path d="M217.75 325 a3.25 3.25 0 1 0 6.5 0 a3.25 3.25 0 1 0 -6.5 0zM217.75 273 a3.25 3.25 0 1 0 6.5 0 a3.25 3.25 0 1 0 -6.5 0z" fill="black"></path>
            <path d="M1309.75 247 a3.25 3.25 0 1 0 6.5 0 a3.25 3.25 0 1 0 -6.5 0zM1309.75 39 a3.25 3.25 0 1 0 6.5 0 a3.25 3.25 0 1 0 -6.5 0z" fill="black"></path>
            <path d="M1101.75 91 a3.25 3.25 0 1 0 6.5 0 a3.25 3.25 0 1 0 -6.5 0zM1127.75 143 a3.25 3.25 0 1 0 6.5 0 a3.25 3.25 0 1 0 -6.5 0z" fill="black"></path>
            <path d="M893.75 91 a3.25 3.25 0 1 0 6.5 0 a3.25 3.25 0 1 0 -6.5 0zM893.75 39 a3.25 3.25 0 1 0 6.5 0 a3.25 3.25 0 1 0 -6.5 0z" fill="black"></path>
            <path d="M503.75 39 a3.25 3.25 0 1 0 6.5 0 a3.25 3.25 0 1 0 -6.5 0zM581.75 39 a3.25 3.25 0 1 0 6.5 0 a3.25 3.25 0 1 0 -6.5 0z" fill="black"></path>
            <path d="M1023.75 481 a3.25 3.25 0 1 0 6.5 0 a3.25 3.25 0 1 0 -6.5 0zM971.75 481 a3.25 3.25 0 1 0 6.5 0 a3.25 3.25 0 1 0 -6.5 0z" fill="black"></path>
            <path d="M607.75 91 a3.25 3.25 0 1 0 6.5 0 a3.25 3.25 0 1 0 -6.5 0zM659.75 91 a3.25 3.25 0 1 0 6.5 0 a3.25 3.25 0 1 0 -6.5 0z" fill="black"></path>
            <path d="M1387.75 351 a3.25 3.25 0 1 0 6.5 0 a3.25 3.25 0 1 0 -6.5 0zM1413.75 403 a3.25 3.25 0 1 0 6.5 0 a3.25 3.25 0 1 0 -6.5 0z" fill="black"></path>
            <path d="M1413.75 351 a3.25 3.25 0 1 0 6.5 0 a3.25 3.25 0 1 0 -6.5 0zM1413.75 299 a3.25 3.25 0 1 0 6.5 0 a3.25 3.25 0 1 0 -6.5 0z" fill="black"></path>
            <path d="M295.75 65 a3.25 3.25 0 1 0 6.5 0 a3.25 3.25 0 1 0 -6.5 0zM399.75 169 a3.25 3.25 0 1 0 6.5 0 a3.25 3.25 0 1 0 -6.5 0z" fill="black"></path>
            <path d="M217.75 65 a3.25 3.25 0 1 0 6.5 0 a3.25 3.25 0 1 0 -6.5 0zM295.75 117 a3.25 3.25 0 1 0 6.5 0 a3.25 3.25 0 1 0 -6.5 0z" fill="black"></path>
            <path d="M581.75 377 a3.25 3.25 0 1 0 6.5 0 a3.25 3.25 0 1 0 -6.5 0zM529.75 325 a3.25 3.25 0 1 0 6.5 0 a3.25 3.25 0 1 0 -6.5 0z" fill="black"></path>
            <path d="M503.75 65 a3.25 3.25 0 1 0 6.5 0 a3.25 3.25 0 1 0 -6.5 0zM555.75 65 a3.25 3.25 0 1 0 6.5 0 a3.25 3.25 0 1 0 -6.5 0z" fill="black"></path>
            <path d="M87.75 247 a3.25 3.25 0 1 0 6.5 0 a3.25 3.25 0 1 0 -6.5 0zM35.75 325 a3.25 3.25 0 1 0 6.5 0 a3.25 3.25 0 1 0 -6.5 0z" fill="black"></path>
            <path d="M867.75 351 a3.25 3.25 0 1 0 6.5 0 a3.25 3.25 0 1 0 -6.5 0zM815.75 481 a3.25 3.25 0 1 0 6.5 0 a3.25 3.25 0 1 0 -6.5 0z" fill="black"></path>
            <path d="M789.75 221 a3.25 3.25 0 1 0 6.5 0 a3.25 3.25 0 1 0 -6.5 0zM607.75 195 a3.25 3.25 0 1 0 6.5 0 a3.25 3.25 0 1 0 -6.5 0z" fill="black"></path>
            <path d="M295.75 221 a3.25 3.25 0 1 0 6.5 0 a3.25 3.25 0 1 0 -6.5 0zM295.75 169 a3.25 3.25 0 1 0 6.5 0 a3.25 3.25 0 1 0 -6.5 0z" fill="black"></path>
            <path d="M1205.75 325 a3.25 3.25 0 1 0 6.5 0 a3.25 3.25 0 1 0 -6.5 0zM1257.75 351 a3.25 3.25 0 1 0 6.5 0 a3.25 3.25 0 1 0 -6.5 0z" fill="black"></path>
            <path d="M737.75 143 a3.25 3.25 0 1 0 6.5 0 a3.25 3.25 0 1 0 -6.5 0zM737.75 195 a3.25 3.25 0 1 0 6.5 0 a3.25 3.25 0 1 0 -6.5 0z" fill="black"></path>
            <path d="M113.75 403 a3.25 3.25 0 1 0 6.5 0 a3.25 3.25 0 1 0 -6.5 0zM139.75 455 a3.25 3.25 0 1 0 6.5 0 a3.25 3.25 0 1 0 -6.5 0z" fill="black"></path>
            <path d="M581.75 351 a3.25 3.25 0 1 0 6.5 0 a3.25 3.25 0 1 0 -6.5 0zM659.75 299 a3.25 3.25 0 1 0 6.5 0 a3.25 3.25 0 1 0 -6.5 0z" fill="black"></path>
            <path d="M815.75 169 a3.25 3.25 0 1 0 6.5 0 a3.25 3.25 0 1 0 -6.5 0zM763.75 195 a3.25 3.25 0 1 0 6.5 0 a3.25 3.25 0 1 0 -6.5 0z" fill="black"></path>
            <path d="M1179.75 117 a3.25 3.25 0 1 0 6.5 0 a3.25 3.25 0 1 0 -6.5 0zM1179.75 169 a3.25 3.25 0 1 0 6.5 0 a3.25 3.25 0 1 0 -6.5 0z" fill="black"></path>
            <path d="M61.75 455 a3.25 3.25 0 1 0 6.5 0 a3.25 3.25 0 1 0 -6.5 0zM9.75 455 a3.25 3.25 0 1 0 6.5 0 a3.25 3.25 0 1 0 -6.5 0z" fill="black"></path>
            <path d="M1023.75 117 a3.25 3.25 0 1 0 6.5 0 a3.25 3.25 0 1 0 -6.5 0zM919.75 39 a3.25 3.25 0 1 0 6.5 0 a3.25 3.25 0 1 0 -6.5 0z" fill="black"></path>
            <path d="M763.75 143 a3.25 3.25 0 1 0 6.5 0 a3.25 3.25 0 1 0 -6.5 0zM815.75 143 a3.25 3.25 0 1 0 6.5 0 a3.25 3.25 0 1 0 -6.5 0z" fill="black"></path>
            <path d="M1179.75 39 a3.25 3.25 0 1 0 6.5 0 a3.25 3.25 0 1 0 -6.5 0zM1101.75 65 a3.25 3.25 0 1 0 6.5 0 a3.25 3.25 0 1 0 -6.5 0z" fill="black"></path>
            <path d="M841.75 351 a3.25 3.25 0 1 0 6.5 0 a3.25 3.25 0 1 0 -6.5 0zM789.75 429 a3.25 3.25 0 1 0 6.5 0 a3.25 3.25 0 1 0 -6.5 0z" fill="black"></path>
            <path d="M711.75 195 a3.25 3.25 0 1 0 6.5 0 a3.25 3.25 0 1 0 -6.5 0zM633.75 195 a3.25 3.25 0 1 0 6.5 0 a3.25 3.25 0 1 0 -6.5 0z" fill="black"></path>
            <path d="M425.75 299 a3.25 3.25 0 1 0 6.5 0 a3.25 3.25 0 1 0 -6.5 0zM425.75 351 a3.25 3.25 0 1 0 6.5 0 a3.25 3.25 0 1 0 -6.5 0z" fill="black"></path>
            <path d="M399.75 39 a3.25 3.25 0 1 0 6.5 0 a3.25 3.25 0 1 0 -6.5 0zM347.75 39 a3.25 3.25 0 1 0 6.5 0 a3.25 3.25 0 1 0 -6.5 0z" fill="black"></path>
            <path d="M61.75 403 a3.25 3.25 0 1 0 6.5 0 a3.25 3.25 0 1 0 -6.5 0zM61.75 351 a3.25 3.25 0 1 0 6.5 0 a3.25 3.25 0 1 0 -6.5 0z" fill="black"></path>
            <path d="M373.75 533 a3.25 3.25 0 1 0 6.5 0 a3.25 3.25 0 1 0 -6.5 0zM373.75 481 a3.25 3.25 0 1 0 6.5 0 a3.25 3.25 0 1 0 -6.5 0z" fill="black"></path>
        </mask>
    </defs>
</svg>